<?xml version="1.0" encoding="UTF-8"?>
<svg width="256" height="256" enable-background="new 0 0 512 512" version="1.1" viewBox="0 0 513.75 513.75" xml:space="preserve" xmlns="http://www.w3.org/2000/svg">

	<path d="m504.35 459.06-99.435-99.477c74.402-99.427 54.115-240.34-45.312-314.75s-240.34-54.115-314.75 45.312-54.115 240.34 45.312 314.75c79.868 59.766 189.56 59.766 269.43 0l99.477 99.477c12.501 12.501 32.769 12.501 45.269 0 12.501-12.501 12.501-32.769 0-45.269l1e-3 -0.043zm-278.64-73.365c-88.366 0-160-71.634-160-160s71.634-160 160-160 160 71.634 160 160c-0.094 88.326-71.673 159.91-160 160z" fill="#41197f" data-original="#000000"/>
















</svg>
